<?xml version="1.0" encoding="utf-8"?>
<!-- Generator: Adobe Illustrator 25.0.1, SVG Export Plug-In . SVG Version: 6.00 Build 0)  -->
<svg version="1.1" id="Calque_1" xmlns="http://www.w3.org/2000/svg" xmlns:xlink="http://www.w3.org/1999/xlink" x="0px" y="0px"
	 viewBox="0 0 500 500" style="enable-background:new 0 0 500 500;" xml:space="preserve">
<style type="text/css">
	.st0{fill:#00D494;}
	.st1{fill:#FFFFFF;}
	.st2{fill:none;stroke:#FFFFFF;stroke-width:20;stroke-miterlimit:10;}
</style>
<rect class="st0" width="500" height="500"/>
<g id="Calque_2_1_">
	<g>
		<path class="st1" d="M194.4,337.4c-6.4,4.7-20.5,10.9-38.5,10.9c-40.4,0-66.7-38.6-66.7-96.2c0-58,28.2-100.1,72-100.1
			c14.4,0,27.1,5.1,33.8,9.7l-5.5,26.5c-5.8-4.7-15-8.9-28.2-8.9c-30.7,0-47.3,31.9-47.3,71.3c0,43.6,19.9,70.5,46.5,70.5
			c13.8,0,23-5.1,29.9-9.3L194.4,337.4z"/>
		<path class="st1" d="M219.6,309.4c7.2,6.6,19.9,13.6,32.1,13.6c17.7,0,26-12.5,26-28c0-16.4-6.9-25.3-24.9-34.7
			c-24.1-12.1-35.4-30.8-35.4-53.4c0-30.4,17.4-55.3,46.2-55.3c13.6,0,25.5,5.5,32.9,11.7l-6.1,24.9c-5.3-4.7-15-10.9-27.4-10.9
			c-14.4,0-22.4,11.7-22.4,25.7c0,15.6,8,22.6,25.5,31.9c23.3,12.5,35.1,28.8,35.1,56.9c0,33.1-18.3,56.5-50.1,56.5
			c-14.7,0-28.2-5.1-37.6-12.9L219.6,309.4z"/>
		<path class="st1" d="M329.2,309.4c7.2,6.6,19.9,13.6,32.1,13.6c17.7,0,26-12.5,26-28c0-16.4-6.9-25.3-24.9-34.7
			C338.3,248.2,327,229.5,327,207c0-30.4,17.4-55.3,46.2-55.3c13.6,0,25.5,5.5,32.9,11.7l-6.1,24.9c-5.3-4.7-15-10.9-27.4-10.9
			c-14.4,0-22.4,11.7-22.4,25.7c0,15.6,8,22.6,25.5,31.9c23.3,12.5,35.1,28.8,35.1,56.9c0,33.1-18.3,56.5-50.1,56.5
			c-14.7,0-28.2-5.1-37.6-12.9L329.2,309.4z"/>
	</g>
</g>
<rect x="22" y="22" class="st2" width="455.9" height="455.9"/>
</svg>
