<?xml version="1.0" encoding="utf-8"?>
<!-- Generator: Adobe Illustrator 25.0.1, SVG Export Plug-In . SVG Version: 6.00 Build 0)  -->
<svg version="1.1" xmlns="http://www.w3.org/2000/svg" xmlns:xlink="http://www.w3.org/1999/xlink" x="0px" y="0px"
	 viewBox="0 0 1833.8 1080" style="enable-background:new 0 0 1833.8 1080;" xml:space="preserve">
<style type="text/css">
	.st0{fill:#00D494;}
	.st1{fill:#FFFFFF;}
</style>
<g id="Calque_1">
	<g>
		<g>
			<path class="st0" d="M298.9,402.8v134H0V0.8h140.2v402H298.9z"/>
			<path class="st0" d="M498.9,133.8v71.1h179.4v125.8H498.9v73.2H738v133H358.7V0.8H738v133H498.9z"/>
			<path class="st0" d="M1143.1,486.3H970l-13.4,50.5H811.2l156.7-536h178.3l155.6,536h-145.3L1143.1,486.3z M1110.2,363.7
				l-53.6-206.2l-54.6,206.2H1110.2z"/>
			<path class="st0" d="M1674,536.8l-100-151.5h-43.3h-15.5v151.5h-140.2V0.8h161.8c113.4,0,281.4,0,281.4,191.7
				c0,99-46.4,146.4-106.2,170.1l121.6,174.2H1674z M1576.1,261.6c52.6,0,97.9,0,97.9-64.9c0-63.9-48.4-63.9-97.9-63.9h-60.8v128.8
				H1576.1z"/>
		</g>
		<g>
			<path class="st0" d="M439.1,536.8v536H299.9L140.2,807.9v264.9H0v-536h140.2l158.7,263.9V536.8H439.1z"/>
			<path class="st0" d="M736,536.8v536H595.8v-536H736z"/>
			<path class="st0" d="M1323.2,536.8v536H1184l-159.8-264.9v264.9H884.1v-536h140.2L1183,800.7V536.8H1323.2z"/>
			<path class="st0" d="M1831.7,745v276.2c-43.3,38.1-106.2,58.8-180.4,58.8c-161.8,0-262.8-103.1-262.8-273.1
				c0-169,104.1-277.3,269-277.3c67,0,120.6,17.5,163.9,49.5l-70.1,115.4c-24.7-17.5-58.7-28.9-92.8-28.9
				c-78.3,0-125.8,51.5-125.8,143.3c0,85.6,46.4,135,119.6,135c15.5,0,27.8-2.1,39.2-5.2v-71.1h-59.8V745H1831.7z"/>
		</g>
	</g>
</g>
<g id="Calque_2">
	<g>
		<path class="st1" d="M703,848.2c-24.5,18-78.7,41.9-147.9,41.9c-155.4,0-256.5-148.2-256.5-369.8c0-223.1,108.5-384.8,276.7-384.8
			c55.3,0,104.3,19.5,129.8,37.4l-21.3,101.8c-22.3-18-57.5-34.4-108.5-34.4c-118.1,0-182,122.8-182,274c0,167.7,76.6,271,178.8,271
			c53.2,0,88.3-19.5,114.9-35.9L703,848.2z"/>
		<path class="st1" d="M799.8,740.4c27.7,25.5,76.6,52.4,123.4,52.4c68.1,0,100-47.9,100-107.8c0-62.9-26.6-97.3-95.8-133.3
			c-92.6-46.4-136.2-118.3-136.2-205.1c0-116.8,67-212.6,177.7-212.6c52.1,0,97.9,21,126.6,44.9l-23.4,95.8
			c-20.2-18-57.5-41.9-105.4-41.9c-55.3,0-86.2,44.9-86.2,98.8c0,59.9,30.9,86.8,97.9,122.8c89.4,47.9,135.1,110.8,135.1,218.6
			c0,127.3-70.2,217.1-192.6,217.1c-56.4,0-108.5-19.5-144.7-49.4L799.8,740.4z"/>
		<path class="st1" d="M1221.2,740.4c27.7,25.5,76.6,52.4,123.4,52.4c68.1,0,100-47.9,100-107.8c0-62.9-26.6-97.3-95.8-133.3
			c-92.6-46.4-136.2-118.3-136.2-205.1c0-116.8,67-212.6,177.7-212.6c52.1,0,97.9,21,126.6,44.9l-23.4,95.8
			c-20.2-18-57.5-41.9-105.4-41.9c-55.3,0-86.2,44.9-86.2,98.8c0,59.9,30.9,86.8,97.9,122.8c89.4,47.9,135.1,110.8,135.1,218.6
			c0,127.3-70.2,217.1-192.6,217.1c-56.4,0-108.5-19.5-144.7-49.4L1221.2,740.4z"/>
	</g>
</g>
</svg>
